<svg width="256" height="256" viewBox="0 0 256 256" fill="none" xmlns="http://www.w3.org/2000/svg">
<rect width="256" height="256" fill="#B8296D"/>
<path opacity="0.95" d="M82.3892 166.627C77.9308 165.721 73.8034 164.067 70.0068 161.664C66.2451 159.225 62.971 156.23 60.1846 152.677C57.4329 149.125 55.2734 145.119 53.7061 140.661C52.1735 136.167 51.4072 131.413 51.4072 126.397C51.4072 122.601 51.86 118.961 52.7656 115.478C53.6712 111.96 54.9425 108.686 56.5796 105.656C58.2166 102.591 60.1846 99.8216 62.4834 97.3486C64.8171 94.8408 67.3945 92.6987 70.2158 90.9224C73.0719 89.146 76.137 87.7702 79.4111 86.7949C82.6852 85.8197 86.116 85.332 89.7036 85.332C93.2912 85.332 96.722 85.8197 99.9961 86.7949C103.305 87.7702 106.37 89.146 109.191 90.9224C112.048 92.6987 114.625 94.8408 116.924 97.3486C119.257 99.8216 121.243 102.591 122.88 105.656C124.552 108.686 125.84 111.96 126.746 115.478C127.652 118.961 128.104 122.601 128.104 126.397C128.104 131.483 127.303 136.289 125.701 140.817C124.099 145.345 121.87 149.403 119.014 152.991C116.192 156.578 112.831 159.574 108.93 161.977C105.029 164.38 100.797 165.983 96.2344 166.784C97.3141 167.236 98.3765 167.724 99.4214 168.247C100.501 168.804 101.581 169.309 102.661 169.762C103.74 170.249 104.803 170.65 105.848 170.963C106.927 171.312 108.025 171.503 109.139 171.538C110.219 171.538 111.264 171.399 112.274 171.12C113.319 170.841 114.259 170.406 115.095 169.814C115.931 169.222 116.645 168.456 117.237 167.515C117.864 166.575 118.282 165.425 118.491 164.067L130.142 169.866C129.829 172.409 129.097 174.708 127.948 176.763C126.833 178.818 125.388 180.577 123.611 182.04C121.835 183.502 119.815 184.634 117.551 185.436C115.287 186.237 112.883 186.637 110.341 186.637C108.286 186.637 106.213 186.237 104.124 185.436C102.069 184.669 100.066 183.816 98.1152 182.875C96.1995 181.97 94.3883 181.117 92.6816 180.315C90.9749 179.549 89.4772 179.166 88.1885 179.166C87.6312 179.166 87.1261 179.149 86.6733 179.114C86.2554 179.114 85.8374 179.114 85.4194 179.114C85.0015 179.149 84.5312 179.201 84.0088 179.271C83.5212 179.375 82.9465 179.549 82.2847 179.793L82.3892 166.627ZM89.7036 151.005C92.7339 151.005 95.5029 150.361 98.0107 149.072C100.553 147.749 102.73 145.972 104.542 143.743C106.353 141.479 107.746 138.867 108.721 135.906C109.731 132.911 110.236 129.741 110.236 126.397C110.236 123.019 109.731 119.832 108.721 116.836C107.711 113.841 106.283 111.229 104.437 109C102.626 106.736 100.466 104.959 97.9585 103.67C95.4507 102.347 92.6991 101.685 89.7036 101.685C86.7082 101.685 83.9565 102.347 81.4487 103.67C78.9409 104.959 76.7814 106.736 74.9702 109C73.159 111.229 71.731 113.841 70.686 116.836C69.6759 119.832 69.1709 123.019 69.1709 126.397C69.1709 129.741 69.6759 132.911 70.686 135.906C71.731 138.867 73.159 141.479 74.9702 143.743C76.7814 145.972 78.9409 147.749 81.4487 149.072C83.9565 150.361 86.7082 151.005 89.7036 151.005ZM152.817 151.685H161.02V100.64H151.406V110.88H134.374V86.7949H206.421V110.88H189.285V100.64H178.365V151.685H186.725V166H152.817V151.685Z" fill="white"/>
</svg>
